<?xml version="1.0" standalone="no"?>
<!DOCTYPE svg PUBLIC "-//W3C//DTD SVG 20010904//EN"
 "http://www.w3.org/TR/2001/REC-SVG-20010904/DTD/svg10.dtd">
<svg version="1.0" xmlns="http://www.w3.org/2000/svg"
 width="550.000000pt" height="550.000000pt" viewBox="0 0 550.000000 550.000000"
 preserveAspectRatio="xMidYMid meet">
<metadata>
Created by potrace 1.16, written by Peter Selinger 2001-2019
</metadata>
<g transform="translate(0.000000,550.000000) scale(0.169231,-0.169231)"
fill="#000000" stroke="none">
<path d="M1385 3239 c-527 -81 -983 -413 -1215 -884 -76 -154 -107 -241 -142
-397 -20 -91 -23 -129 -23 -333 0 -204 3 -242 23 -333 35 -156 66 -243 142
-397 216 -438 628 -759 1108 -863 l92 -20 0 569 0 569 -207 2 -208 3 0 235 0
235 208 3 207 2 0 233 c0 270 10 332 70 453 97 197 294 304 558 304 82 0 232
-13 315 -26 l37 -6 0 -204 0 -204 -120 0 c-65 0 -142 -5 -169 -11 -68 -14
-123 -57 -152 -116 -22 -44 -24 -63 -27 -235 l-4 -188 226 0 c216 0 226 -1
226 -19 0 -19 -56 -397 -65 -439 -5 -22 -6 -22 -195 -22 l-190 0 0 -569 0
-569 92 20 c624 135 1107 622 1250 1260 20 91 23 129 23 333 0 204 -3 242 -23
333 -112 499 -425 904 -867 1122 -156 76 -221 100 -375 137 -92 22 -133 25
-320 28 -118 2 -242 0 -275 -6z"/>
</g>
</svg>
