<?xml version="1.0" standalone="no"?>
<!DOCTYPE svg PUBLIC "-//W3C//DTD SVG 20010904//EN"
 "http://www.w3.org/TR/2001/REC-SVG-20010904/DTD/svg10.dtd">
<svg version="1.0" xmlns="http://www.w3.org/2000/svg"
 width="550.000000pt" height="550.000000pt" viewBox="0 0 550.000000 550.000000"
 preserveAspectRatio="xMidYMid meet">
<metadata>
Created by potrace 1.16, written by Peter Selinger 2001-2019
</metadata>
<g transform="translate(0.000000,550.000000) scale(0.107422,-0.107422)"
fill="#000000" stroke="none">
<path d="M2340 5054 c-19 -2 -73 -9 -120 -15 -824 -100 -1564 -625 -1950
-1383 -180 -355 -257 -666 -267 -1085 -6 -259 4 -395 49 -611 157 -766 698
-1452 1404 -1780 233 -108 350 -138 413 -105 56 28 61 57 61 340 l0 257 -32
-6 c-18 -3 -97 -9 -174 -12 -259 -12 -431 35 -549 150 -45 44 -67 79 -124 197
-79 165 -139 252 -213 308 -29 22 -69 53 -89 68 -45 35 -74 82 -60 96 6 6 30
13 53 17 156 21 323 -84 466 -295 76 -113 152 -178 249 -216 99 -38 292 -29
426 21 39 15 57 27 57 39 0 71 59 210 121 283 46 55 52 50 -83 68 -361 47
-678 213 -830 434 -90 131 -162 321 -195 516 -20 120 -23 401 -5 485 35 162
92 289 184 410 61 79 61 80 49 120 -49 172 -52 326 -7 499 34 132 44 146 102
146 115 0 369 -101 572 -227 l72 -45 88 21 c352 85 752 85 1104 0 l88 -21 72
44 c234 144 443 227 569 228 26 0 51 -6 57 -12 16 -20 60 -176 71 -255 19
-128 11 -231 -29 -373 l-13 -46 58 -74 c161 -210 225 -457 196 -769 -39 -420
-180 -697 -441 -866 -177 -115 -362 -182 -595 -214 -139 -20 -131 -13 -82 -74
23 -28 55 -80 70 -114 51 -115 57 -176 57 -624 0 -445 1 -455 55 -497 43 -34
104 -29 226 17 350 133 632 314 894 576 426 425 686 966 745 1551 16 154 8
531 -14 669 -59 363 -194 713 -391 1010 -413 622 -1027 1015 -1765 1130 -100
16 -516 29 -600 19z"/>
</g>
</svg>
