<?xml version="1.0" standalone="no"?>
<!DOCTYPE svg PUBLIC "-//W3C//DTD SVG 20010904//EN"
 "http://www.w3.org/TR/2001/REC-SVG-20010904/DTD/svg10.dtd">
<svg version="1.0" xmlns="http://www.w3.org/2000/svg"
 width="550.000000pt" height="550.000000pt" viewBox="0 0 550.000000 550.000000"
 preserveAspectRatio="xMidYMid meet">
<metadata>
Created by potrace 1.16, written by Peter Selinger 2001-2019
</metadata>
<g transform="translate(0.000000,550.000000) scale(0.137845,-0.137845)"
fill="#000000" stroke="none">
<path d="M0 1995 l0 -1995 1995 0 1995 0 0 1995 0 1995 -1995 0 -1995 0 0
-1995z m2141 840 c49 -17 93 -55 116 -98 14 -29 14 -29 -14 -23 -15 2 -48 8
-73 12 -25 3 -54 13 -65 20 -27 19 -202 19 -224 0 -14 -12 -161 -34 -161 -24
0 2 11 19 24 37 52 70 106 90 247 91 71 0 121 -5 150 -15z m-748 -88 c18 -8
47 -26 65 -41 l32 -28 -41 -33 c-51 -40 -91 -98 -121 -176 -13 -32 -25 -59
-28 -59 -3 0 -14 19 -25 42 -32 68 -102 156 -151 191 l-45 31 23 18 c23 18
121 53 168 61 52 9 92 7 123 -6z m1388 -13 c36 -9 81 -25 100 -36 l34 -21 -30
-21 c-54 -38 -109 -102 -150 -175 -22 -39 -43 -71 -47 -71 -3 0 -14 22 -23 49
-22 67 -69 139 -118 183 l-42 37 30 31 c50 52 101 57 246 24z m-528 -35 c220
-32 310 -110 371 -321 53 -184 115 -577 123 -783 12 -294 -51 -380 -317 -437
-96 -20 -132 -22 -425 -23 -224 0 -343 4 -395 13 -312 56 -379 138 -367 447 9
223 76 644 129 805 69 214 169 282 452 310 106 10 324 5 429 -11z m-1132 -129
c27 -29 70 -95 99 -152 59 -114 58 -88 16 -333 -14 -82 -30 -188 -37 -235
l-12 -85 -18 95 c-9 52 -35 167 -58 255 -52 209 -71 319 -71 421 0 103 12 108
81 34z m1825 24 c22 -88 -28 -395 -107 -653 -16 -51 -29 -100 -29 -107 0 -8
-4 -14 -8 -14 -4 0 -15 55 -25 123 -10 67 -27 175 -39 239 l-21 116 22 54 c47
114 157 268 191 268 5 0 13 -12 16 -26z"/>
</g>
</svg>
