<?xml version="1.0" standalone="no"?>
<!DOCTYPE svg PUBLIC "-//W3C//DTD SVG 20010904//EN"
 "http://www.w3.org/TR/2001/REC-SVG-20010904/DTD/svg10.dtd">
<svg version="1.0" xmlns="http://www.w3.org/2000/svg"
 width="550.000000pt" height="550.000000pt" viewBox="0 0 550.000000 550.000000"
 preserveAspectRatio="xMidYMid meet">
<metadata>
Created by potrace 1.16, written by Peter Selinger 2001-2019
</metadata>
<g transform="translate(0.000000,550.000000) scale(0.053711,-0.053711)"
fill="#000000" stroke="none">
<path d="M4955 10194 c-1646 -56 -3151 -894 -4059 -2259 -484 -726 -762 -1527
-837 -2410 -15 -179 -15 -629 0 -810 36 -425 116 -814 250 -1215 380 -1136
1154 -2101 2186 -2725 189 -115 563 -301 760 -378 858 -336 1800 -434 2715
-281 1743 291 3223 1490 3873 3139 338 858 434 1791 281 2715 -322 1940 -1763
3529 -3672 4050 -459 125 -1019 190 -1497 174z m-55 -1871 l0 -1226 -138 6
c-259 13 -635 63 -912 123 -172 37 -543 135 -568 150 -6 3 110 255 180 391
206 402 462 785 757 1133 200 237 622 650 663 650 17 0 18 -57 18 -1227z m590
1124 c531 -479 982 -1073 1306 -1717 83 -165 167 -351 162 -355 -7 -5 -222
-66 -336 -95 -381 -95 -801 -160 -1144 -177 l-138 -6 0 1226 c0 1170 1 1227
18 1227 10 0 69 -47 132 -103z m-1427 -39 c-151 -171 -201 -229 -274 -318
-230 -282 -450 -607 -620 -912 -73 -130 -218 -424 -270 -543 -23 -55 -44 -101
-45 -103 -5 -7 -257 103 -429 188 -172 84 -417 221 -553 307 l-64 41 129 132
c476 493 1072 876 1708 1100 108 38 406 128 429 129 5 1 0 -9 -11 -21z m2243
-17 c770 -218 1452 -625 1999 -1193 l126 -131 -63 -40 c-136 -86 -381 -223
-553 -307 -172 -85 -424 -195 -429 -188 -1 2 -22 48 -45 103 -110 254 -302
612 -465 867 -196 307 -340 495 -680 884 -21 24 -36 44 -33 44 2 0 67 -18 143
-39z m-4679 -1743 c269 -169 621 -354 913 -478 80 -34 147 -64 149 -66 2 -2
-17 -70 -42 -151 -129 -415 -218 -873 -252 -1298 -9 -104 -18 -218 -21 -252
l-6 -63 -838 0 -838 0 5 63 c54 734 258 1386 620 1990 76 127 202 317 209 317
2 0 47 -28 101 -62z m7166 -50 c444 -660 690 -1380 750 -2195 l5 -63 -838 0
-838 0 -6 63 c-3 34 -12 148 -21 252 -35 442 -129 912 -266 1343 -16 51 -29
96 -29 101 0 4 42 25 93 46 291 121 645 302 912 469 83 52 153 94 156 95 3 1
40 -50 82 -111z m-5511 -692 c482 -141 1006 -230 1476 -252 l142 -7 0 -654 0
-653 -1040 0 c-868 0 -1040 2 -1040 14 0 35 22 285 36 411 33 303 107 668 197
975 49 166 64 210 71 210 3 0 74 -20 158 -44z m3849 17 c53 -139 160 -567 203
-813 37 -207 85 -640 86 -762 0 -5 -468 -8 -1040 -8 l-1040 0 0 653 0 654 140
7 c483 23 1129 136 1540 270 97 31 99 31 111 -1z m-4756 -2135 c33 -553 119
-1051 261 -1513 20 -66 37 -126 38 -133 0 -8 -56 -38 -144 -76 -314 -136 -572
-271 -854 -445 -82 -50 -152 -88 -156 -84 -27 31 -132 192 -205 313 -93 155
-237 442 -303 605 -156 386 -268 841 -302 1230 -6 66 -12 141 -15 168 l-4 47
838 0 839 0 7 -112z m2525 -541 l0 -654 -140 -7 c-469 -22 -1014 -115 -1481
-251 -64 -19 -128 -39 -144 -45 -15 -6 -29 -9 -31 -7 -2 1 -28 88 -58 193 -88
309 -147 600 -186 919 -19 154 -40 405 -40 473 l0 32 1040 0 1040 0 0 -653z
m2520 621 c0 -59 -20 -301 -35 -438 -37 -319 -105 -655 -196 -969 -27 -97 -51
-177 -52 -178 -2 -1 -45 11 -97 28 -466 146 -1061 252 -1560 275 l-140 7 0
654 0 653 1040 0 1040 0 0 -32z m2126 0 c-3 -18 -8 -73 -11 -123 -34 -514
-209 -1131 -462 -1628 -91 -178 -291 -507 -353 -580 -4 -4 -74 34 -156 84
-282 175 -545 311 -854 445 -88 38 -144 68 -144 76 1 7 18 67 38 133 143 464
227 954 262 1518 l6 107 840 0 839 0 -5 -32z m-4646 -2954 l0 -1226 -22 6
c-13 3 -37 6 -54 6 -27 0 -56 24 -207 170 -560 543 -993 1161 -1299 1855 -66
149 -69 130 25 159 467 142 1083 249 1470 255 l87 1 0 -1226z m745 1211 c397
-35 766 -103 1150 -212 88 -25 165 -48 172 -52 16 -8 -68 -198 -203 -461 -301
-582 -658 -1061 -1141 -1530 -151 -146 -180 -170 -207 -170 -17 0 -41 -3 -53
-6 l-23 -6 0 1226 0 1226 68 0 c37 0 144 -7 237 -15z m-2750 -557 c84 -196
267 -549 383 -742 199 -329 426 -637 678 -922 l72 -81 -86 24 c-724 203 -1366
572 -1907 1095 -69 66 -148 146 -175 178 l-49 56 142 86 c256 155 461 261 742
384 66 29 125 53 131 53 6 1 37 -59 69 -131z m4632 86 c243 -103 622 -302 841
-441 l63 -40 -124 -129 c-542 -562 -1234 -978 -1979 -1188 l-117 -33 98 111
c419 476 787 1057 1041 1644 29 67 56 122 60 122 5 0 57 -21 117 -46z"/>
</g>
</svg>
